<?xml version="1.0" standalone="no"?><!DOCTYPE svg PUBLIC "-//W3C//DTD SVG 1.1//EN" "http://www.w3.org/Graphics/SVG/1.1/DTD/svg11.dtd"><svg class="icon" width="200px" height="200.00px" viewBox="0 0 1024 1024" version="1.1" xmlns="http://www.w3.org/2000/svg"><path fill="#333333" d="M768 298.666667c23.04 0 42.666667 13.866667 42.666667 30.506666v365.653334c0 16.64-19.626667 30.506667-42.666667 30.506666H335.786667l-173.226667-184.533333a15.146667 15.146667 0 0 0-3.2-3.2 31.36 31.36 0 0 1 0-51.2 15.146667 15.146667 0 0 0 3.2-3.2L335.786667 298.666667H768m0-42.666667H337.706667a47.146667 47.146667 0 0 0-30.293334 10.666667l-175.786666 187.52a73.6 73.6 0 0 0 0 115.626666l175.786666 187.52a47.146667 47.146667 0 0 0 30.293334 10.666667H768a80 80 0 0 0 85.333333-73.173333V329.173333A80 80 0 0 0 768 256z"  /><path fill="#333333" d="M661.333333 640a21.333333 21.333333 0 0 1-15.146666-6.186667l-213.333334-213.333333a21.333333 21.333333 0 0 1 30.293334-30.293333l213.333333 213.333333a21.333333 21.333333 0 0 1 0 30.293333A21.333333 21.333333 0 0 1 661.333333 640z"  /><path fill="#333333" d="M448 640a21.333333 21.333333 0 0 1-15.146667-6.186667 21.333333 21.333333 0 0 1 0-30.293333l213.333334-213.333333a21.333333 21.333333 0 0 1 30.293333 30.293333l-213.333333 213.333333A21.333333 21.333333 0 0 1 448 640z"  /></svg>